<svg width="72" height="72" viewBox="0 0 72 72" fill="none" xmlns="http://www.w3.org/2000/svg" role="img" aria-labelledby="title">
  <title id="title">CircleCI</title>
  <defs>
    <linearGradient id="bg" x1="8" y1="3" x2="65" y2="69" gradientUnits="userSpaceOnUse">
      <stop stop-color="#1A2230"/>
      <stop offset="1" stop-color="#0B1017"/>
    </linearGradient>
    <radialGradient id="glow" cx="0" cy="0" r="1" gradientTransform="translate(36 3) rotate(90) scale(49)" gradientUnits="userSpaceOnUse">
      <stop stop-color="#F0F6FC" stop-opacity=".24"/>
      <stop offset="1" stop-color="#F0F6FC" stop-opacity="0"/>
    </radialGradient>
    <filter id="shadow" x="0" y="0" width="72" height="72" filterUnits="userSpaceOnUse" color-interpolation-filters="sRGB">
      <feDropShadow dx="0" dy="3" stdDeviation="3" flood-color="#000" flood-opacity=".42"/>
    </filter>
  </defs>
  <g filter="url(#shadow)">
    <rect x="5" y="4" width="62" height="62" rx="15" fill="url(#bg)"/>
    <rect x="5" y="4" width="62" height="62" rx="15" fill="url(#glow)"/>
    <rect x="5.5" y="4.5" width="61" height="61" rx="14.5" stroke="#A8B3C4" stroke-opacity=".17"/>
    <path d="M21 4.5h30" stroke="#F0F6FC" stroke-opacity=".55" stroke-linecap="round"/>
  </g>
  <g transform="translate(20 20) scale(1.333333)" color="#F0F6FC" fill="currentColor">
    <path d="M8.963 12c0-1.584 1.284-2.855 2.855-2.855 1.572 0 2.856 1.284 2.856 2.855 0 1.572-1.284 2.856-2.856 2.856-1.57 0-2.855-1.284-2.855-2.856zm2.855-12C6.215 0 1.522 3.84.19 9.025c-.01.036-.01.07-.01.12 0 .313.252.576.575.576H5.59c.23 0 .433-.13.517-.333.997-2.16 3.18-3.672 5.712-3.672 3.466 0 6.286 2.82 6.286 6.287 0 3.47-2.82 6.29-6.29 6.29-2.53 0-4.714-1.5-5.71-3.673-.097-.19-.29-.336-.517-.336H.755c-.312 0-.575.253-.575.576 0 .037.014.072.014.12C1.514 20.16 6.214 24 11.818 24c6.624 0 12-5.375 12-12 0-6.623-5.376-12-12-12z"/>
  </g>
</svg>
